<svg xmlns:dc="http://purl.org/dc/elements/1.1/" xmlns:cc="http://creativecommons.org/ns#" xmlns:rdf="http://www.w3.org/1999/02/22-rdf-syntax-ns#" xmlns:svg="http://www.w3.org/2000/svg" xmlns="http://www.w3.org/2000/svg" xmlns:sodipodi="http://sodipodi.sourceforge.net/DTD/sodipodi-0.dtd" xmlns:inkscape="http://www.inkscape.org/namespaces/inkscape" width="125.62737mm" height="120.1446mm" viewBox="0 0 125.62737 120.1446" id="svg4578" inkscape:version="0.92.3 (2405546, 2018-03-11)" sodipodi:docname="epanet.svg"><defs id="defs4572"></defs><metadata></metadata><g inkscape:label="Capa 1" inkscape:groupmode="layer" id="layer1" transform="translate(-73.756989,-162.14848)"><g id="g5134" transform="translate(185.96429,106.58929)"><g id="g5165" transform="translate(57.195679,-18.708867)"><path inkscape:connector-curvature="0" id="path5146" d="m -122.09566,194.02507 c -8.04359,-1.5233 -18.20124,-7.76495 -30.31621,-18.62864 -9.67631,-8.67691 -14.51364,-18.04245 -16.54798,-32.03851 -2.21595,-15.24548 3.77733,-18.72827 20.27535,-11.78231 22.63192,9.52843 36.50867,24.14934 40.18645,42.34148 2.94556,14.57021 -2.25219,22.25658 -13.59761,20.10798 z m 24.148517,-0.0301 c -6.556257,-1.76183 -8.985967,-8.95765 -6.751257,-19.99451 3.70436,-18.29519 17.520725,-32.87466 40.204299,-42.42484 16.498021,-6.94596 22.491301,-3.46317 20.275352,11.78231 -2.032539,13.98365 -6.880253,23.3693 -16.547983,32.03851 -15.892455,14.25102 -28.985792,20.80062 -37.180411,18.59853 z m -11.083807,-38.94624 c -6.60795,-1.05123 -12.1879,-5.89193 -14.21234,-12.32942 -0.55577,-1.76729 -0.58115,-1.79833 -2.68504,-3.28336 -8.61371,-6.08001 -14.05401,-15.8348 -14.94994,-26.80618 -0.44121,-5.403 -2.31083,-4.82804 15.94409,-4.90322 18.18747,-0.0749 15.87846,0.60485 17.4091,-5.12504 0.85858,-3.214082 1.3132,-3.869133 1.56792,-2.25916 1.30853,8.27083 -0.62908,7.43233 17.347969,7.50737 15.674891,0.0654 15.674891,0.0654 15.749191,2.35047 0.34081,10.48112 -5.452788,22.139 -14.276136,28.72644 -1.943854,1.45126 -2.024088,1.55305 -2.443991,3.1004 -2.340627,8.62532 -10.931953,14.37693 -19.450823,13.0217 z m -29.25346,-58.243886 c -0.18912,-0.228185 -0.10708,-0.683194 0.28661,-1.589689 11.82773,-27.233742 48.493371,-28.109601 61.5451,-1.470173 1.767992,3.608589 3.207108,3.237546 -12.853137,3.313883 -7.603553,0.03614 -13.923683,-0.03332 -14.044723,-0.154371 -0.12105,-0.121046 -0.26933,-0.664965 -0.32951,-1.208711 -0.3087,-2.789025 -0.88561,-4.241754 -2.0474,-5.155618 -2.00775,-1.579297 -4.14655,0.451674 -4.77819,4.537286 -0.29617,1.915704 -0.29617,1.915704 -13.90499,1.981393 -10.69172,0.05161 -13.66561,-0.0028 -13.87376,-0.254 z" style="fill:#000000;fill-opacity:0;stroke-width:0.25400001"></path><path inkscape:connector-curvature="0" id="path5142" d="m -122.2103,193.53138 c -11.69177,-2.28947 -32.44032,-17.97845 -39.52801,-29.88904 -6.20521,-10.42764 -9.09798,-27.46654 -5.54085,-32.63665 2.06445,-3.00058 7.17061,-3.17775 14.54867,-0.50481 26.63496,9.64939 43.53218,28.39956 44.53912,49.42326 0.50247,10.49086 -4.607,15.45027 -14.01893,13.60724 z m 24.263157,-0.0444 c -6.829037,-1.83513 -8.931557,-10.61787 -5.469937,-22.84923 4.607767,-16.28116 17.916569,-29.62876 38.10278,-38.21386 17.889436,-7.60829 23.42468,-3.92064 20.210183,13.46427 -2.550267,13.79258 -7.679769,22.35286 -19.194183,32.03186 -14.610095,12.28123 -26.098238,17.59599 -33.648843,15.56696 z m -10.547157,-38.5965 c -0.2794,-0.0645 -1.13665,-0.23956 -1.905,-0.38897 -5.64573,-1.09783 -10.8446,-6.02711 -12.68021,-12.02267 -0.63422,-2.07149 -0.74808,-2.22765 -2.42178,-3.3212 -8.03278,-5.24839 -13.53859,-14.79355 -14.87119,-25.78147 -0.66028,-5.44429 -2.19406,-4.94429 15.39407,-5.01844 17.60447,-0.0742 15.92844,0.16069 16.74869,-2.34757 0.25126,-0.76835 0.6963,-2.34672 0.98897,-3.50749 0.67376,-2.672282 0.91503,-2.703945 1.33724,-0.1755 0.41698,2.49707 1.01176,4.63879 1.49894,5.3975 0.36698,0.57149 0.36698,0.57149 15.728125,0.57149 15.361145,0 15.361145,0 15.356492,2.2225 -0.02268,10.83838 -5.458638,21.64622 -14.092347,28.01866 -1.827647,1.34896 -1.936839,1.50124 -2.35568,3.28511 -1.886036,8.03276 -11.49467,14.73808 -18.72632,13.06805 z m -29.337,-58.66439 c 0,-0.212342 0.52897,-1.439324 1.1755,-2.726627 12.55605,-25.000611 46.972458,-25.03665 59.491285,-0.0623 1.802826,3.596538 3.41454,3.189379 -12.325464,3.113715 -13.670321,-0.06571 -13.670321,-0.06571 -13.838721,-1.768739 -0.68135,-6.890464 -6.6014,-6.878736 -7.6246,0.0151 -0.26937,1.814919 -0.26937,1.814919 -13.57369,1.814919 -11.73445,0 -13.30431,-0.04555 -13.30431,-0.386075 z" style="fill:#00ffff;fill-opacity:1;stroke-width:0.25400001"></path><path inkscape:connector-curvature="0" id="path5140" d="m -117.5748,193.44046 c -1.07068,-0.13498 -0.82939,-0.56231 0.3175,-0.56231 0.5588,0 1.016,0.10207 1.016,0.22682 0,0.31309 -0.50445,0.44 -1.3335,0.33549 z m 20.932135,0.002 c -0.664843,-0.22157 -0.226985,-0.56383 0.721365,-0.56383 0.5588,0 1.016,0.10132 1.016,0.22517 0,0.24758 -1.26871,0.49492 -1.737365,0.3387 z m 5.610865,-0.48492 c 0.244475,-0.0639 0.644525,-0.0639 0.889,0 0.244475,0.0639 0.04445,0.11616 -0.4445,0.11616 -0.48895,0 -0.688975,-0.0523 -0.4445,-0.11616 z m -23.3045,-0.33292 c 0.0863,-0.1397 0.32843,-0.254 0.53798,-0.254 0.20955,0 0.31036,0.1143 0.22402,0.254 -0.0863,0.1397 -0.32843,0.25401 -0.53798,0.25401 -0.20955,0 -0.31036,-0.11431 -0.22402,-0.25401 z m 14.732,0 c -0.08634,-0.1397 0.01448,-0.254 0.22402,-0.254 0.20955,0 0.45164,0.1143 0.53798,0.254 0.08634,0.1397 -0.01448,0.25401 -0.22402,0.25401 -0.20955,0 -0.45164,-0.11431 -0.53798,-0.25401 z m -26.87476,-0.41642 c -0.28656,-0.28657 0.0892,-0.59958 0.71978,-0.59958 0.43968,0 0.57086,0.1073 0.46583,0.381 -0.14732,0.38392 -0.88438,0.5198 -1.18561,0.21858 z m 38.592644,-0.22187 c -0.123681,-0.3223 -0.01918,-0.39381 0.483567,-0.33093 0.795544,0.0995 0.943577,0.56097 0.213378,0.66515 -0.316253,0.0451 -0.604403,-0.093 -0.696945,-0.33422 z m -41.196834,-1.00463 c -0.47226,-0.3572 -0.4636,-0.37326 0.20545,-0.381 0.45515,-0.005 0.6985,0.12466 0.6985,0.37292 0,0.4808 -0.27571,0.48326 -0.90395,0.008 z m 44.08395,-0.008 c 0,-0.24826 0.243355,-0.37818 0.6985,-0.37292 0.669051,0.008 0.677713,0.0238 0.205453,0.381 -0.628244,0.47518 -0.903953,0.47272 -0.903953,-0.008 z m -27.53284,-0.0847 c -0.072,-0.11642 0.0306,-0.21167 0.22784,-0.21167 0.19726,0 0.29979,0.0953 0.22784,0.21167 -0.072,0.11641 -0.17448,0.21166 -0.22784,0.21166 -0.0534,0 -0.15589,-0.0953 -0.22784,-0.21166 z m 11.43,0 c -0.072,-0.11642 0.0306,-0.21167 0.22784,-0.21167 0.19726,0 0.29979,0.0953 0.22784,0.21167 -0.072,0.11641 -0.17448,0.21166 -0.22784,0.21166 -0.0534,0 -0.15589,-0.0953 -0.22784,-0.21166 z m -30.68743,-1.19878 c -0.45151,-0.24506 -0.63752,-0.50898 -0.53924,-0.76509 0.12746,-0.33216 0.22311,-0.31256 0.63567,0.13027 0.2671,0.2867 0.59548,0.52126 0.72974,0.52126 0.13425,0 0.2441,0.1143 0.2441,0.25401 0,0.33929 -0.24581,0.30703 -1.07027,-0.14045 z m 49.33027,0.14045 c 0,-0.13971 0.109847,-0.25401 0.244104,-0.25401 0.134259,0 0.462641,-0.23456 0.729737,-0.52126 0.41356,-0.4439 0.50797,-0.46305 0.636153,-0.129 0.100744,0.26253 -0.09441,0.51892 -0.59012,0.77526 -0.871685,0.45077 -1.019874,0.46951 -1.019874,0.12901 z m -27.432,-2.159 c 0,-0.20956 0.1143,-0.38101 0.254,-0.38101 0.1397,0 0.254,0.17145 0.254,0.38101 0,0.20954 -0.1143,0.38099 -0.254,0.38099 -0.1397,0 -0.254,-0.17145 -0.254,-0.38099 z m 6.096,0 c 0,-0.20956 0.1143,-0.38101 0.254,-0.38101 0.1397,0 0.254,0.17145 0.254,0.38101 0,0.20954 -0.1143,0.38099 -0.254,0.38099 -0.1397,0 -0.254,-0.17145 -0.254,-0.38099 z m -31.85168,-0.53362 c -0.2071,-0.5397 -0.037,-0.71696 0.49285,-0.51363 0.22719,0.0872 0.36785,0.29418 0.31258,0.46 -0.1621,0.48629 -0.62752,0.51727 -0.80543,0.0536 z m 57.37868,0.15261 c -0.212608,-0.344 0.07428,-0.762 0.522991,-0.762 0.411955,0 0.428795,0.0488 0.211834,0.61423 -0.175278,0.45677 -0.503111,0.5227 -0.734825,0.14777 z m -56.007,-0.26899 c 0,-0.14794 0.1143,-0.19834 0.254,-0.112 0.1397,0.0863 0.254,0.20738 0.254,0.26899 0,0.0616 -0.1143,0.112 -0.254,0.112 -0.1397,0 -0.254,-0.12104 -0.254,-0.26899 z m 54.991,0.015 c 0.08634,-0.1397 0.207386,-0.25399 0.268991,-0.25399 0.06161,0 0.112009,0.11429 0.112009,0.25399 0,0.1397 -0.121046,0.254 -0.268991,0.254 -0.147945,0 -0.198349,-0.1143 -0.112009,-0.254 z m -59.182,-1.77799 c -0.21261,-0.34401 0.0743,-0.762 0.52299,-0.762 0.41196,0 0.4288,0.0488 0.21183,0.61422 -0.17527,0.45677 -0.50311,0.5227 -0.73482,0.14778 z m 63.017316,-0.15262 c -0.207099,-0.5397 -0.03701,-0.71696 0.492852,-0.51363 0.227192,0.0872 0.367853,0.29418 0.31258,0.46 -0.162096,0.48629 -0.627515,0.51727 -0.805432,0.0536 z m -33.366906,-1.87939 c 0.005,-0.90805 0.10102,-1.8796 0.21293,-2.159 0.133,-0.33206 0.20285,0.0638 0.20171,1.143 -10e-4,0.90806 -0.0968,1.8796 -0.21293,2.159 -0.14172,0.34092 -0.20806,-0.035 -0.20171,-1.143 z m 4.1928,1.18573 c -0.10352,-0.2559 -0.1779,-0.88455 -0.1653,-1.397 0.0229,-0.93173 0.0229,-0.93173 0.26817,-0.0796 0.29461,1.0236 0.20928,2.24826 -0.10287,1.47656 z m -36.76421,-0.93173 c -0.2794,-0.2794 -0.6223,-0.508 -0.762,-0.508 -0.31498,0 -0.33424,-0.42842 -0.0278,-0.61782 0.12441,-0.0769 0.42268,0.16003 0.6628,0.52651 0.33908,0.51749 0.4846,0.58863 0.65154,0.31852 0.15337,-0.24816 0.20269,-0.18499 0.17214,0.2205 -0.0521,0.6923 -0.0637,0.6933 -0.6967,0.0603 z m 68.897848,-0.0795 c -0.02981,-0.3958 0.01864,-0.45199 0.173591,-0.20128 0.166939,0.27011 0.312466,0.19897 0.651538,-0.31852 0.240124,-0.36648 0.538389,-0.60341 0.662806,-0.52651 0.360763,0.22296 0.261838,0.61782 -0.154783,0.61782 -0.20955,0 -0.381,0.11028 -0.381,0.24507 0,0.57289 -0.909615,0.74811 -0.952152,0.18342 z m -72.199848,-2.71449 c 0,-0.1397 0.12105,-0.254 0.26899,-0.254 0.14795,0 0.19835,0.1143 0.11201,0.254 -0.0863,0.13971 -0.20739,0.254 -0.26899,0.254 -0.0616,0 -0.11201,-0.11429 -0.11201,-0.254 z m 75.819,0 c -0.08634,-0.1397 -0.03594,-0.254 0.112009,-0.254 0.147945,0 0.268991,0.1143 0.268991,0.254 0,0.13971 -0.0504,0.254 -0.112009,0.254 -0.06161,0 -0.182651,-0.11429 -0.268991,-0.254 z m -77.3754,-1.2065 c -0.31594,-0.40285 -0.30696,-0.41184 0.0959,-0.0959 0.24448,0.19174 0.4445,0.39176 0.4445,0.4445 0,0.20906 -0.20858,0.0745 -0.5404,-0.3486 z m 78.7724,0.3486 c 0,-0.0527 0.200025,-0.25276 0.4445,-0.4445 0.402859,-0.31594 0.411843,-0.30695 0.0959,0.0959 -0.331818,0.42311 -0.5404,0.55766 -0.5404,0.3486 z m -79.0575,-0.84802 c -0.38417,-0.0582 -0.6985,-0.19575 -0.6985,-0.30568 0,-0.33199 1.85411,-0.17175 1.96829,0.17011 0.10666,0.31935 0.0109,0.32957 -1.26979,0.13557 z m 78.600374,-0.0971 c 0.128414,-0.38455 1.981126,-0.56387 1.981126,-0.19174 0,0.1192 -0.200025,0.21828 -0.4445,0.22019 -0.244475,0.002 -0.716979,0.0764 -1.050006,0.16552 -0.45186,0.12093 -0.57534,0.0717 -0.48662,-0.19397 z m -40.782724,-0.35601 c -0.0804,-0.20956 -0.0355,-0.38101 0.0998,-0.38101 0.13532,0 0.24603,0.17145 0.24603,0.38101 0,0.20954 -0.0449,0.38099 -0.0998,0.38099 -0.0549,0 -0.16562,-0.17145 -0.24603,-0.38099 z M -149.74435,176.8 c -0.39428,-0.39429 -0.34678,-1.19336 0.071,-1.19336 0.19244,0 0.49219,0.17146 0.6661,0.381 0.17391,0.20955 0.53081,0.381 0.7931,0.381 0.2623,0 0.4769,0.1488 0.4769,0.33066 0,0.41225 -1.6145,0.49324 -2.00705,0.1007 z m 84.30305,-0.0927 c 0,-0.18626 0.214605,-0.33867 0.4769,-0.33867 0.262293,0 0.619189,-0.17145 0.7931,-0.381 0.173911,-0.20954 0.473657,-0.381 0.6661,-0.381 0.436872,0 0.460192,0.86679 0.0324,1.20428 -0.47769,0.37686 -1.9685,0.29839 -1.9685,-0.10361 z m -43.688,-0.70467 c 0,-0.77827 0.14476,-0.84114 0.32753,-0.14225 0.073,0.27926 0.0292,0.57176 -0.0974,0.64999 -0.12658,0.0782 -0.23015,-0.15025 -0.23015,-0.50774 z m -42.43407,-0.79635 c -0.27537,-0.3318 -0.26982,-0.43988 0.0324,-0.63111 0.54422,-0.34437 0.92677,-0.28687 1.10032,0.16539 0.32334,0.84261 -0.52906,1.19307 -1.13272,0.46572 z m 88.803236,0.16928 c -0.211107,-0.34159 0.117726,-1.03893 0.489907,-1.03893 0.54784,0 0.924629,0.6287 0.582084,0.97125 -0.356237,0.35624 -0.87347,0.38889 -1.071991,0.0677 z m -47.459236,-0.94366 c -0.19822,-0.19822 0.0749,-0.85727 0.35525,-0.85727 0.29022,0 0.29677,0.68879 0.008,0.86711 -0.12022,0.0743 -0.28379,0.0699 -0.3635,-0.01 z m 6.8405,-0.0175 c -0.24207,-0.24207 -0.19623,-0.83977 0.0644,-0.83977 0.31161,0 0.56176,0.71559 0.30552,0.87397 -0.11412,0.0705 -0.28058,0.0551 -0.36991,-0.0342 z m -49.42041,-0.43705 c -0.40169,-0.48401 -0.28149,-0.72253 0.21079,-0.41828 0.18761,0.11595 0.29442,0.35087 0.23736,0.52204 -0.0738,0.22137 -0.20317,0.19142 -0.44815,-0.10376 z m 91.92998,0.16405 c 0,-0.16219 0.2318,-0.41895 0.515115,-0.57057 0.283311,-0.15163 0.457456,-0.36897 0.386989,-0.48299 -0.07047,-0.11402 0.08643,-0.40148 0.348668,-0.63881 0.334061,-0.30231 0.529976,-0.34544 0.654446,-0.14404 0.09771,0.15809 0.13637,0.30841 0.08591,0.33404 -0.05045,0.0256 -0.519099,0.4405 -1.041433,0.92193 -0.522333,0.48143 -0.949698,0.74263 -0.949698,0.58044 z m -48.7279,-1.32877 c 0,-0.34925 0.0577,-0.49212 0.12812,-0.3175 0.0705,0.17463 0.0705,0.46038 0,0.635 -0.0705,0.17463 -0.12812,0.0318 -0.12812,-0.3175 z m 5.842,0 c 0,-0.34925 0.0577,-0.49212 0.12812,-0.3175 0.0705,0.17463 0.0705,0.46038 0,0.635 -0.0705,0.17463 -0.12812,0.0318 -0.12812,-0.3175 z m -50.70225,-0.23644 c -0.0804,-0.13005 -0.03,-0.30825 0.11201,-0.39599 0.30311,-0.18734 0.76614,0.0504 0.76614,0.39343 0,0.30906 -0.68748,0.31107 -0.87815,0.003 z m 43.49122,-1.10879 c 0.21171,-0.83826 1.07493,-1.31124 1.07493,-0.58898 0,0.19348 -0.27367,0.5311 -0.60815,0.75027 -0.5832,0.38212 -0.60235,0.3755 -0.46678,-0.16129 z m 8.25043,0.15793 c -0.69672,-0.48601 -0.73626,-0.8447 -0.0931,-0.8447 0.30858,0 0.52148,0.22541 0.59978,0.635 0.0668,0.34925 0.10866,0.62901 0.0931,0.62168 -0.0155,-0.007 -0.28546,-0.19272 -0.59978,-0.41198 z m -52.88656,-0.574 c -0.35117,-0.65615 -0.33259,-0.77869 0.11806,-0.77869 0.23707,0 0.381,0.23988 0.381,0.635 0,0.76218 -0.14562,0.80411 -0.49906,0.14369 z m 97.52706,-0.14779 c 0,-0.4202 0.141768,-0.6309 0.4245,-0.6309 0.233474,0 0.634225,-0.1898 0.890557,-0.42178 0.929889,-0.84154 0.642821,-0.1881 -0.322976,0.73518 -0.971286,0.92852 -0.992081,0.93518 -0.992081,0.3175 z m -98.806,-1.01191 c -0.17639,-0.21253 -0.20389,-0.38099 -0.0622,-0.38099 0.1397,0 0.39629,0.17145 0.5702,0.38099 0.17639,0.21254 0.20389,0.38101 0.0622,0.38101 -0.1397,0 -0.39629,-0.17146 -0.5702,-0.38101 z m -0.79736,-2.40454 c -0.59964,-0.49955 -0.59964,-0.49955 0.0989,-0.508 0.53198,-0.006 0.6985,0.11265 0.6985,0.49954 0,0.62854 -0.0524,0.62909 -0.79736,0.008 z m 101.38136,4.8e-4 c 0,-0.38524 0.165588,-0.51694 0.649991,-0.51694 0.706341,0 0.636245,0.34551 -0.156136,0.76958 -0.413944,0.22153 -0.493855,0.18065 -0.493855,-0.25264 z m -104.22473,-2.14937 c -0.15214,-0.39647 0.41016,-1.00547 0.6796,-0.73603 0.0919,0.0919 0.16713,0.37668 0.16713,0.6328 0,0.54886 -0.64552,0.62757 -0.84673,0.10323 z m 48.26387,-0.15262 c -0.28144,-0.27393 -0.36083,-0.51194 -0.20324,-0.60934 0.14224,-0.0879 0.38791,0.0818 0.54594,0.37704 0.37461,0.69996 0.23502,0.79458 -0.3427,0.2323 z m 58.75486,0.0494 c 0,-0.25612 0.07521,-0.54088 0.167129,-0.6328 0.269441,-0.26944 0.831741,0.33956 0.679598,0.73603 -0.201206,0.52434 -0.846727,0.44563 -0.846727,-0.10323 z m -61.214,-3.09831 c 0,-0.7241 0.75239,-0.95017 1.1865,-0.35649 0.30656,0.41924 0.29386,0.50267 -0.10023,0.65841 -0.78815,0.31149 -1.08627,0.22863 -1.08627,-0.30192 z m 15.169733,0.30192 c -0.394091,-0.15574 -0.406791,-0.23917 -0.100231,-0.65841 0.434107,-0.59368 1.186498,-0.36761 1.186498,0.35649 0,0.53055 -0.298117,0.61341 -1.086267,0.30192 z m -63.059173,-0.81884 c -0.23377,-0.37825 0.0373,-0.5839 0.52358,-0.39728 0.22443,0.0861 0.33692,0.27169 0.24997,0.41238 -0.20589,0.33313 -0.56264,0.32617 -0.77355,-0.0151 z m 111.428683,-0.12331 c 0.04827,-0.24898 0.241549,-0.50391 0.429514,-0.5665 0.2186,-0.0728 0.310134,0.0493 0.254,0.33891 -0.04827,0.24898 -0.241549,0.50391 -0.429514,0.5665 -0.2186,0.0728 -0.310134,-0.0493 -0.254,-0.33891 z M -163.5979,159.80163 c -0.21747,-0.31048 -0.3954,-0.76768 -0.3954,-1.016 0,-0.50472 0.75005,-0.63308 0.78289,-0.13399 0.0115,0.17463 0.0725,0.63183 0.13569,1.016 0.13904,0.84599 4e-4,0.88149 -0.52318,0.13399 z m 113.50061,-0.0705 c 0.05952,-0.4191 0.117615,-0.90487 0.129104,-1.0795 0.01148,-0.17462 0.192336,-0.3175 0.401886,-0.3175 0.542028,0 0.471366,0.8535 -0.129103,1.55937 -0.510103,0.59963 -0.510103,0.59963 -0.401887,-0.16237 z m -64.95868,-0.0423 c -0.0931,-0.0931 -0.16933,-0.28744 -0.16933,-0.4318 0,-0.15916 0.11831,-0.14416 0.30057,0.0381 0.16531,0.16531 0.24151,0.35962 0.16933,0.4318 -0.0722,0.0722 -0.20743,0.055 -0.30057,-0.0381 z m 16.59467,-0.0547 c 0,-0.1397 0.1143,-0.32464 0.254,-0.41098 0.1397,-0.0863 0.254,-0.0427 0.254,0.097 0,0.1397 -0.1143,0.32464 -0.254,0.41097 -0.1397,0.0863 -0.254,0.0427 -0.254,-0.097 z m -65.786,-2.18898 c 0,-0.20955 0.1143,-0.381 0.254,-0.381 0.1397,0 0.254,0.17145 0.254,0.381 0,0.20955 -0.1143,0.381 -0.254,0.381 -0.1397,0 -0.254,-0.17145 -0.254,-0.381 z m 114.808,0 c 0,-0.20955 0.04492,-0.381 0.09983,-0.381 0.0549,0 0.165615,0.17145 0.246029,0.381 0.08041,0.20955 0.03549,0.381 -0.09983,0.381 -0.135315,0 -0.246029,-0.17145 -0.246029,-0.381 z m -68.02159,-1.32123 c -0.31831,-0.35736 -0.53897,-0.76909 -0.49035,-0.91496 0.0486,-0.14586 0.35142,0.10417 0.67288,0.55562 0.72032,1.01159 0.60342,1.24171 -0.18253,0.35934 z m 21.032852,0.53282 c 0.002,-0.35596 1.249343,-1.78908 1.259604,-1.44717 0.005,0.16743 -0.276616,0.61274 -0.625866,0.98959 -0.34925,0.37685 -0.634431,0.58276 -0.633738,0.45758 z m 47.634586,-0.083 c -0.08037,-0.13005 -0.02997,-0.30825 0.112009,-0.39599 0.141979,-0.0877 0.258143,0.0186 0.258143,0.23644 0,0.44616 -0.152415,0.51185 -0.370152,0.15955 z m -115.834848,-0.2716 c 0.0863,-0.1397 0.20738,-0.254 0.26899,-0.254 0.0616,0 0.11201,0.1143 0.11201,0.254 0,0.1397 -0.12105,0.25401 -0.26899,0.25401 -0.14794,0 -0.19835,-0.11431 -0.11201,-0.25401 z m 56.134,-1.41168 c -0.2794,-0.0645 -1.13665,-0.23956 -1.905,-0.38897 -7.96666,-1.54915 -15.06053,-11.51309 -13.70498,-19.24982 0.16214,-0.92539 0.35337,-2.08257 0.42497,-2.57153 0.0716,-0.48895 0.26562,-1.06045 0.43117,-1.27 0.87233,-1.10418 1.2843,-2.29038 0.97015,-2.79342 -0.43066,-0.68958 -0.39327,-0.82324 0.14907,-0.53299 0.53375,0.28566 1.47276,-0.97773 1.21872,-1.63974 -0.0776,-0.20231 -0.025,-0.36785 0.11705,-0.36785 0.32375,0 1.48501,-1.30047 1.49582,-1.67513 0.004,-0.15297 0.23663,-0.48501 0.51603,-0.73786 0.2794,-0.25286 0.49898,-0.5849 0.48795,-0.73787 -0.0116,-0.16055 -0.0742,-0.14391 -0.14817,0.0394 -0.19783,0.49026 -0.59378,0.37533 -0.59378,-0.17236 0,-0.79635 0.78094,-1.44525 1.14315,-0.94989 0.24871,0.34012 0.35092,0.28899 0.74044,-0.37041 0.24855,-0.42076 0.3843,-0.83263 0.30166,-0.91526 -0.0826,-0.0826 0.10626,-0.27735 0.41976,-0.4327 0.37652,-0.18659 0.59666,-0.55603 0.64856,-1.08842 0.05,-0.51285 0.19242,-0.76227 0.39164,-0.68582 0.41654,0.15984 1.51516,-1.34983 1.33119,-1.82926 -0.0816,-0.21269 -0.035,-0.30906 0.10699,-0.22129 0.13836,0.0855 0.3586,-0.12605 0.48942,-0.47014 0.13082,-0.34408 0.36386,-0.70348 0.51785,-0.79866 0.154,-0.0952 0.2132,-0.38354 0.13154,-0.64082 -0.0944,-0.29748 0.0155,-0.55952 0.30188,-0.7198 0.42652,-0.23869 0.42375,-0.28196 -0.0524,-0.8178 -0.50271,-0.56578 -0.50271,-0.56578 0.1881,-0.43852 0.37995,0.07 0.63038,0.0295 0.55651,-0.0901 -0.0739,-0.11952 0.0317,-0.21731 0.23451,-0.21731 0.42335,0 0.67717,-0.53143 0.67717,-1.41777 0,-0.33782 0.11798,-0.61422 0.26218,-0.61422 0.40434,0 0.74164,-1.10917 0.40434,-1.32962 -0.18602,-0.12157 -0.14604,-0.18796 0.11471,-0.1905 1.00179,-0.01 1.76629,-1.61311 2.88532,-6.05138 0.67379,-2.672409 0.91567,-2.70422 1.3344,-0.1755 0.46593,2.81378 1.24304,5.28632 1.8278,5.81552 0.27036,0.24468 0.56117,0.7222 0.64625,1.06117 0.0851,0.33897 0.28277,0.6163 0.43934,0.6163 0.47719,0 0.95905,0.84358 0.96758,1.69392 0.0106,1.05558 0.77032,2.36645 1.37268,2.36848 0.38781,0.001 0.41887,0.07 0.16827,0.37192 -0.24882,0.29981 -0.18221,0.49544 0.3499,1.02754 0.361475,0.36148 0.65723,0.80949 0.65723,0.99559 0,0.1861 0.17145,0.48064 0.381,0.65455 0.20955,0.17392 0.381,0.45967 0.381,0.635 0,0.57285 0.756338,1.01474 1.230244,0.71878 0.466824,-0.29154 1.563756,-0.0102 1.563756,0.40105 0,0.44712 -0.444436,0.53282 -0.764322,0.14738 -0.488058,-0.58808 -0.801375,-0.44734 -0.713049,0.32029 0.04752,0.41304 0.297391,0.79385 0.611386,0.9318 0.292059,0.12832 0.634959,0.58552 0.762,1.016 0.184887,0.62649 0.369245,0.7827 0.923747,0.7827 0.38102,0 0.695345,0.0857 0.6985,0.1905 0.01882,0.62529 -0.01885,0.7133 -0.245354,0.5733 -0.143982,-0.089 -0.186563,0.013 -0.09982,0.23901 0.0832,0.21681 0.249687,0.39419 0.369979,0.39419 0.120292,0 0.378998,0.30592 0.574903,0.67982 0.356192,0.67981 0.356192,0.67981 0.652049,0.127 0.162722,-0.30405 0.380149,-0.55281 0.483171,-0.55281 0.328133,0 0.777451,2.38527 0.51129,2.71426 -0.285496,0.35289 0.198752,1.442 0.54579,1.22752 0.207091,-0.12799 0.423146,0.0489 1.224249,1.0024 0.277305,0.33005 0.2481,0.38981 -0.1905,0.38981 -0.644555,0 -0.661891,0.36413 -0.04662,0.9794 0.259265,0.25926 0.536204,0.74504 0.615419,1.0795 0.487454,2.0581 1.191667,4.35699 1.418329,4.6301 0.29787,0.35891 -0.194803,3.74995 -0.670926,4.61792 -0.152083,0.27725 -0.405016,1.07558 -0.562074,1.77408 -1.766354,7.85574 -11.493617,14.59685 -18.671137,12.93932 z m 16.218057,-29.5172 c -0.176834,-0.67621 -0.851057,-0.76329 -0.851057,-0.10991 0,0.55843 0.536494,1.1399 0.804482,0.87191 0.107182,-0.10718 0.128142,-0.45008 0.04658,-0.762 z m -73.495057,27.99289 c 0,-0.21779 0.11616,-0.32419 0.25814,-0.23644 0.14198,0.0877 0.19239,0.26594 0.11201,0.39599 -0.21774,0.3523 -0.37015,0.28661 -0.37015,-0.15955 z m 45.56494,0.0335 c -0.42381,-1.10445 0.0254,-1.428 0.73739,-0.53108 0.70933,0.8936 0.70933,0.8936 0.0555,0.8936 -0.35959,0 -0.7164,-0.16313 -0.79292,-0.36252 z m 26.807615,-0.88664 c 0.594411,-0.70996 1.14125,-1.29084 1.215197,-1.29084 0.07395,0 -0.0084,0.17216 -0.183052,0.38257 -0.174625,0.21041 -0.39271,0.75334 -0.484635,1.2065 -0.135898,0.66995 -0.303672,0.8397 -0.897697,0.90827 -0.730562,0.0843 -0.730562,0.0843 0.350187,-1.2065 z m 45.621293,1.01272 c -0.08038,-0.13005 -0.02997,-0.30825 0.112009,-0.39599 0.141979,-0.0877 0.258143,0.0186 0.258143,0.23644 0,0.44616 -0.152415,0.51185 -0.370152,0.15955 z m -118.833418,-2.46579 c -0.26164,-0.26164 -0.21384,-1.10777 0.0626,-1.10777 0.13146,0 0.30909,0.1134 0.39475,0.25199 0.19624,0.31753 -0.21885,1.09426 -0.45733,0.85578 z m 119.610361,-0.24315 c -0.172258,-0.44889 0.0057,-0.86462 0.3702,-0.86462 0.304384,0 0.314081,0.93963 0.01163,1.12656 -0.125059,0.0773 -0.29688,-0.0406 -0.381823,-0.26194 z m -120.265331,-2.55834 c -0.0162,-0.1632 -0.10343,-0.5061 -0.19384,-0.762 -0.12755,-0.361 -0.0937,-0.40017 0.15082,-0.17475 0.17336,0.15978 0.26059,0.50268 0.19384,0.762 -0.0667,0.25931 -0.13461,0.33795 -0.15082,0.17475 z m 42.84891,-0.004 c 0.18336,-0.0734 0.40243,-0.0644 0.48684,0.02 0.0844,0.0844 -0.0656,0.14443 -0.33338,0.1334 -0.29589,-0.0122 -0.35608,-0.0724 -0.15346,-0.15346 z m 35.09963,0.0761 c 0,-0.0536 0.228757,-0.1572 0.508351,-0.23031 0.279593,-0.0731 0.444296,-0.0293 0.366008,0.0974 -0.136715,0.22121 -0.874359,0.33336 -0.874359,0.13294 z m 43.197854,-0.33213 c -0.0098,-0.30608 0.09645,-0.62716 0.236146,-0.7135 0.300426,-0.18567 0.300426,0.0629 0,0.762 -0.210462,0.48978 -0.218935,0.48804 -0.236146,-0.0485 z m -82.906524,-1.77183 c -0.29226,-0.29226 -0.18497,-0.59267 0.21167,-0.59267 0.20955,0 0.381,0.17145 0.381,0.38101 0,0.39663 -0.30041,0.50392 -0.59267,0.21166 z m 1.524,0 c -0.0931,-0.0931 -0.16933,-0.37352 -0.16933,-0.62308 0,-0.2703 -0.36541,-0.62715 -0.90382,-0.88264 -0.57594,-0.2733 -0.81558,-0.51715 -0.66057,-0.67215 0.32131,-0.32131 1.31039,0.003 1.31039,0.43011 0,0.18407 0.28575,0.5219 0.635,0.75074 0.67635,0.44316 0.86009,1.16635 0.29633,1.16635 -0.18626,0 -0.41486,-0.0762 -0.508,-0.16933 z m 41.114649,-0.0701 c -0.09052,-0.14645 0.127609,-0.53707 0.484723,-0.86803 0.357114,-0.33096 0.649298,-0.72381 0.649298,-0.873 0,-0.37839 1.014745,-0.66235 1.310394,-0.3667 0.155006,0.155 -0.07841,0.39589 -0.643398,0.664 -0.538871,0.25571 -0.918293,0.63563 -0.967323,0.96858 -0.08964,0.60877 -0.578813,0.88756 -0.833694,0.47515 z m 1.642021,-0.12036 c 0,-0.22119 0.180975,-0.40217 0.402166,-0.40217 0.221193,0 0.356923,0.13573 0.301625,0.30163 -0.15699,0.47097 -0.703791,0.54909 -0.703791,0.10054 z m -83.312,-2.44916 c 0,-0.28764 0.1143,-0.45234 0.254,-0.36601 0.1397,0.0863 0.254,0.32169 0.254,0.523 0,0.2013 -0.1143,0.366 -0.254,0.366 -0.1397,0 -0.254,-0.23534 -0.254,-0.52299 z m 122.428,0.015 c 0,-0.49509 0.26941,-0.66192 0.575165,-0.35616 0.203485,0.20348 -0.06283,0.86416 -0.34834,0.86416 -0.124753,0 -0.226825,-0.22859 -0.226825,-0.508 z m -85.48954,-1.13754 c -0.42974,-0.32511 -0.43705,-0.37128 -0.0599,-0.37838 0.23623,-0.004 0.50485,0.11383 0.59693,0.26282 0.27669,0.4477 -0.015,0.51047 -0.53698,0.11556 z M -82.7133,142.62 c 0,-0.30738 1.68923,-1.30813 1.882257,-1.1151 0.0807,0.0807 -0.06726,0.27123 -0.328808,0.4234 -0.261549,0.15217 -0.718071,0.42357 -1.014497,0.60311 -0.296423,0.17954 -0.538952,0.21941 -0.538952,0.0886 z m 2.159,-0.54203 c 0.08634,-0.1397 0.27128,-0.254 0.41098,-0.254 0.1397,0 0.18336,0.1143 0.09702,0.254 -0.08634,0.1397 -0.27128,0.254 -0.41098,0.254 -0.1397,0 -0.18336,-0.1143 -0.09702,-0.254 z m -88.10041,-2.0955 c -0.26493,-2.20567 -0.19358,-3.91423 0.17628,-4.22119 0.51011,-0.42335 0.65331,-0.10259 0.38616,0.86495 -0.13121,0.47519 -0.19038,1.72479 -0.1315,2.77687 0.12183,2.17691 -0.18888,2.59464 -0.43094,0.57937 z m 123.699884,-0.57937 c 0.05888,-1.05208 -2.54e-4,-2.30168 -0.131506,-2.77687 -0.267152,-0.96754 -0.123947,-1.2883 0.386161,-0.86495 0.369863,0.30696 0.441216,2.01552 0.176284,4.22119 -0.242062,2.01527 -0.552772,1.59754 -0.430939,-0.57937 z m -90.244624,0.51588 c -0.0804,-0.20956 -0.36257,-0.38101 -0.62703,-0.38101 -0.26445,0 -0.48082,-0.1143 -0.48082,-0.25399 0,-0.1397 0.11998,-0.25401 0.26661,-0.25401 0.45203,0 1.76539,0.76071 1.76539,1.02253 0,0.39576 -0.76336,0.28547 -0.92415,-0.13352 z m 56.29615,0.13352 c 0,-0.26182 1.313363,-1.02253 1.765386,-1.02253 0.146637,0 0.266614,0.11431 0.266614,0.25401 0,0.13969 -0.216372,0.25399 -0.480825,0.25399 -0.264454,0 -0.546615,0.17145 -0.627029,0.38101 -0.160782,0.41899 -0.924146,0.52928 -0.924146,0.13352 z m -62.31467,-1.95386 c -0.29226,-0.29226 -0.18497,-0.59267 0.21167,-0.59267 0.20955,0 0.381,0.17145 0.381,0.381 0,0.39664 -0.30041,0.50393 -0.59267,0.21167 z m 1.524,0 c -0.0931,-0.0931 -0.16933,-0.37523 -0.16933,-0.62689 0,-0.25165 -0.31432,-0.62807 -0.6985,-0.83649 -0.40619,-0.22037 -0.53375,-0.3832 -0.3048,-0.38911 0.21654,-0.006 0.52124,0.11736 0.67712,0.27324 0.15588,0.15588 0.5492,0.41593 0.87405,0.57788 0.75675,0.37728 0.94318,1.1707 0.27509,1.1707 -0.26636,0 -0.56049,-0.0762 -0.65363,-0.16933 z m 52.15467,-0.22666 c 0,-0.21779 0.116164,-0.32419 0.258143,-0.23644 0.141978,0.0877 0.192384,0.26594 0.112009,0.39599 -0.217737,0.3523 -0.370152,0.28661 -0.370152,-0.15955 z m 12.997152,-0.0215 c 0.04859,-0.25231 0.354132,-0.59126 0.67898,-0.75321 0.324848,-0.16195 0.718172,-0.422 0.87405,-0.57788 0.15588,-0.15588 0.460583,-0.27937 0.677118,-0.27442 0.246926,0.006 0.157531,0.13971 -0.239789,0.35961 -0.348419,0.19284 -0.696005,0.61742 -0.772414,0.94351 -0.173296,0.73958 -1.358826,1.03393 -1.217945,0.30239 z m 1.988848,0.0577 c 0,-0.22119 0.180975,-0.40217 0.402166,-0.40217 0.221193,0 0.356923,0.13573 0.301625,0.30163 -0.15699,0.47097 -0.703791,0.54909 -0.703791,0.10054 z m -54.85506,-1.40147 c -0.3817,-0.71319 -0.32679,-0.83074 0.24506,-0.5247 0.2794,0.14953 0.508,0.43931 0.508,0.64394 0,0.53025 -0.44301,0.4601 -0.75306,-0.11924 z m 2.27706,-0.8907 c 0,-0.34101 0.11002,-0.68801 0.24449,-0.77112 0.13994,-0.0865 0.2214,0.17843 0.1905,0.61951 -0.0642,0.91575 -0.43499,1.045 -0.43499,0.15161 z m 79.248,-0.889 c 0,-0.13146 0.1143,-0.30966 0.254,-0.396 0.1397,-0.0863 0.254,0.0212 0.254,0.23901 0,0.2178 -0.1143,0.39599 -0.254,0.39599 -0.1397,0 -0.254,-0.10755 -0.254,-0.239 z m -121.64595,-0.92516 c 0.0122,-0.2959 0.0724,-0.35608 0.15346,-0.15346 0.0734,0.18335 0.0643,0.40243 -0.02,0.48683 -0.0844,0.0844 -0.14444,-0.0656 -0.13341,-0.33337 z m 36.42895,0.14817 c -0.0863,-0.1397 -0.0359,-0.25401 0.11201,-0.25401 0.14794,0 0.26899,0.11431 0.26899,0.25401 0,0.13969 -0.0504,0.25399 -0.11201,0.25399 -0.0616,0 -0.18265,-0.1143 -0.26899,-0.25399 z m 6.31825,-0.53976 c 0.0873,-0.43656 0.16391,-0.97948 0.17021,-1.2065 0.006,-0.22701 0.15864,-0.0698 0.33855,0.34925 0.38509,0.89713 0.25524,1.651 -0.28438,1.651 -0.29364,0 -0.34605,-0.1854 -0.22438,-0.79375 z m -22.52074,0.1109 c 0.14436,-0.3762 0.98621,-0.45175 1.19891,-0.10759 0.0767,0.12405 -0.19049,0.27396 -0.59368,0.33314 -0.52994,0.0778 -0.69765,0.0153 -0.60523,-0.22555 z m 58.49349,-0.15258 c 0,-0.41277 0.06442,-0.4433 0.381,-0.18056 0.20955,0.17391 0.381,0.39745 0.381,0.49676 0,0.0993 -0.17145,0.18057 -0.381,0.18057 -0.20955,0 -0.381,-0.22355 -0.381,-0.49677 z m 22.284195,0.39909 c -0.386545,-0.0584 -0.636974,-0.21275 -0.556512,-0.34294 0.231011,-0.37378 1.062998,-0.27572 1.224171,0.14429 0.08041,0.20954 0.121214,0.36387 0.09067,0.34294 -0.03054,-0.0209 -0.371792,-0.0859 -0.758334,-0.14429 z m -82.172785,-0.8729 c 0.13184,-0.3955 0.70009,-0.46476 0.72001,-0.0878 0.007,0.1397 -0.17724,0.2935 -0.41026,0.34176 -0.26485,0.0549 -0.38096,-0.0403 -0.30975,-0.254 z m 83.394438,0.0568 c -0.08038,-0.13005 -0.02997,-0.30825 0.112009,-0.39599 0.303116,-0.18734 0.766143,0.0504 0.766143,0.39343 0,0.30906 -0.687481,0.31107 -0.878152,0.003 z m -85.355828,-0.97209 c -0.41856,-0.21959 -0.625,-0.44479 -0.45875,-0.50045 0.39489,-0.13221 1.74449,0.57539 1.44751,0.75894 -0.12526,0.0774 -0.57021,-0.0389 -0.98876,-0.25849 z m 61.504126,0.0655 c 0.08041,-0.20955 0.248275,-0.38099 0.373029,-0.38099 0.124753,0 0.226825,0.17144 0.226825,0.38099 0,0.20955 -0.167864,0.38101 -0.373029,0.38101 -0.227226,0 -0.315883,-0.14892 -0.226825,-0.38101 z m 25.636497,0.15555 c -0.155738,-0.25199 1.316705,-0.93786 1.538107,-0.71646 0.07835,0.0784 -0.204577,0.32192 -0.628731,0.54126 -0.424155,0.21933 -0.833374,0.29818 -0.909376,0.1752 z M -167.0413,131.94532 c 0,-0.12475 0.17687,-0.2947 0.39305,-0.37765 0.21617,-0.083 0.51491,-0.50043 0.66387,-0.92772 0.28599,-0.82039 0.90915,-0.9058 0.7616,-0.10438 -0.16641,0.9039 -1.81852,2.18465 -1.81852,1.40975 z m 85.598,-0.0272 c 0,-0.1397 0.1143,-0.25399 0.254,-0.25399 0.1397,0 0.254,0.11429 0.254,0.25399 0,0.13971 -0.1143,0.254 -0.254,0.254 -0.1397,0 -0.254,-0.11429 -0.254,-0.254 z m 34.122477,-0.33381 c -0.635511,-0.67087 -0.849943,-1.47335 -0.432849,-1.61988 0.158747,-0.0558 0.410502,0.24821 0.559455,0.6755 0.148953,0.42729 0.447698,0.84476 0.663872,0.92772 0.216175,0.083 0.393045,0.2529 0.393045,0.37765 0,0.41646 -0.628698,0.2247 -1.183523,-0.36099 z m -110.939687,-1.4154 c -0.23051,-0.37297 0.55567,-0.84455 1.11302,-0.66765 0.68377,0.21702 0.66103,0.54187 -0.0513,0.73277 -0.76906,0.2061 -0.89901,0.19813 -1.06171,-0.0651 z m 102.15371,0.0501 c -0.599437,-0.15665 -0.561597,-0.51552 0.07569,-0.71778 0.557355,-0.1769 1.343526,0.29468 1.113023,0.66765 -0.144874,0.23441 -0.436478,0.24671 -1.188712,0.0501 z m -99.29813,-0.25242 c 0.18336,-0.0734 0.40244,-0.0644 0.48684,0.02 0.0844,0.0844 -0.0656,0.14443 -0.33338,0.1334 -0.29589,-0.0122 -0.35608,-0.0724 -0.15345,-0.15346 z m 97.282005,0 c 0.183355,-0.0734 0.402433,-0.0644 0.486834,0.02 0.0844,0.0844 -0.06562,0.14443 -0.333375,0.1334 -0.295897,-0.0122 -0.356082,-0.0724 -0.153459,-0.15346 z m -104.600375,-0.2837 c 0,-0.44369 0.64959,-0.81127 1.3843,-0.78333 0.46494,0.0177 0.58951,0.0773 0.31155,0.14922 -0.27232,0.0704 -0.40642,0.26758 -0.32547,0.47853 0.0995,0.25939 -0.0712,0.35878 -0.61635,0.35878 -0.41472,0 -0.75403,-0.0914 -0.75403,-0.2032 z m 110.998,-0.15917 c 0,-0.19931 -0.200025,-0.41465 -0.4445,-0.47854 -0.244475,-0.0639 -0.08702,-0.12942 0.3499,-0.14562 0.775841,-0.0288 1.526017,0.48645 1.193064,0.81941 -0.310145,0.31014 -1.098464,0.17002 -1.098464,-0.19525 z m -83.71114,-2.68563 c 0,-0.28272 0.11838,-0.47458 0.26307,-0.42635 0.14469,0.0482 0.26307,0.24009 0.26307,0.42635 0,0.18627 -0.11838,0.37813 -0.26307,0.42636 -0.14469,0.0482 -0.26307,-0.14363 -0.26307,-0.42636 z m 56.791029,-1.4455 c 0.0089,-0.46863 0.496105,-0.99264 0.500222,-0.53799 0.002,0.23623 -0.110411,0.50016 -0.250111,0.5865 -0.1397,0.0863 -0.25225,0.0645 -0.250111,-0.0485 z m -58.542959,-0.66095 c -0.10873,-0.2505 -0.12642,-0.52672 -0.0393,-0.61383 0.25794,-0.25794 0.46586,0.10438 0.34714,0.6049 -0.10524,0.44373 -0.11894,0.44413 -0.30783,0.009 z m 60.19007,0.0745 c 0.08634,-0.1397 0.207386,-0.25401 0.268991,-0.25401 0.06161,0 0.112009,0.11431 0.112009,0.25401 0,0.1397 -0.121046,0.254 -0.268991,0.254 -0.147945,0 -0.198349,-0.1143 -0.112009,-0.254 z m -61.18861,-2.43843 c -0.267,-0.69581 -0.16682,-0.90103 0.39921,-0.81774 0.73514,0.10817 0.86998,0.61717 0.25123,0.94832 -0.38778,0.20753 -0.53179,0.17862 -0.65044,-0.13058 z m 61.745119,-2.05508 c -0.0781,-0.12636 -0.04952,-0.37937 0.0635,-0.56224 0.11302,-0.18287 0.269387,-0.22911 0.347482,-0.10275 0.0781,0.12636 0.04952,0.37937 -0.0635,0.56224 -0.11302,0.18287 -0.269387,0.22911 -0.347482,0.10275 z m -40.561509,-1.60249 c 0,-0.1397 0.1143,-0.25401 0.254,-0.25401 0.1397,0 0.254,0.11431 0.254,0.25401 0,0.1397 -0.1143,0.254 -0.254,0.254 -0.1397,0 -0.254,-0.1143 -0.254,-0.254 z m -22.352,-0.56304 c 0,-0.36555 0.11622,-0.70337 0.25827,-0.75072 0.15063,-0.0502 0.0448,-0.50484 -0.254,-1.09087 -0.64238,-1.25998 -0.64317,-1.38004 -0.004,-0.64337 0.49291,0.56833 0.62138,1.10658 0.51529,2.159 -0.0816,0.80934 -0.51529,1.0837 -0.51529,0.32596 z m 64.955209,-4.67042 c -0.101867,-0.10187 -0.185209,-0.36047 -0.185209,-0.57468 0,-0.2859 0.07514,-0.31432 0.282575,-0.10689 0.155415,0.15541 0.23876,0.41402 0.185209,0.57468 -0.05355,0.16065 -0.180711,0.20875 -0.282575,0.10689 z m -65.796219,-0.6151 c -0.48471,-1.81265 0.0387,-3.39128 1.03769,-3.13003 0.56502,0.14776 0.47972,1.86659 -0.0926,1.86659 -0.1916,0 -0.4177,0.31432 -0.50243,0.6985 -0.0847,0.38417 -0.18117,0.80985 -0.21432,0.94594 -0.0332,0.1361 -0.13589,-0.0354 -0.22831,-0.381 z m 66.413114,-2.53344 c 0,-0.34926 0.05765,-0.49213 0.128115,-0.3175 0.07046,0.17462 0.07046,0.46037 0,0.635 -0.07046,0.17462 -0.128115,0.0318 -0.128115,-0.3175 z m -66.588104,-1.38807 c 0,-0.2531 0.23769,-0.38993 0.67733,-0.38993 0.74464,0 0.73473,0.0452 -0.10583,0.48253 -0.47361,0.24641 -0.5715,0.23055 -0.5715,-0.0926 z m 62.756557,-13.586466 c -0.195486,-0.120817 -0.286654,-0.438126 -0.21005,-0.731066 0.0833,-0.318521 -0.0072,-0.572313 -0.235392,-0.659863 -0.457109,-0.17541 -0.344381,-1.202811 0.14986,-1.365803 0.253647,-0.08365 0.308043,0.01207 0.186649,0.328411 -0.115433,0.300815 0.03709,0.639612 0.467525,1.03853 0.874225,0.810204 0.575696,1.967213 -0.358592,1.389791 z M -103.0333,94.256469 c 0,-0.364289 0.11888,-0.735816 0.26418,-0.825616 0.17328,-0.107091 0.20468,0.0844 0.0913,0.55651 -0.23379,0.973178 -0.35545,1.065288 -0.35545,0.269106 z m -33.27305,-0.882824 c 0.002,-0.45012 1.0452,-1.852849 1.27296,-1.712082 0.38144,0.23574 0.2979,0.886582 -0.11379,0.886582 -0.20014,0 -0.43644,0.2286 -0.52512,0.508 -0.15286,0.481637 -0.63607,0.723603 -0.63405,0.3175 z m 25.39905,-1.2065 c 0,-0.20955 0.11071,-0.381 0.24603,-0.381 0.13531,0 0.18024,0.17145 0.0998,0.381 -0.0804,0.20955 -0.19112,0.381 -0.24603,0.381 -0.0549,0 -0.0998,-0.17145 -0.0998,-0.381 z m 30.57717,-1.00214 c -0.346377,-0.90265 0.242464,-1.404798 0.984271,-0.83936 0.377078,0.287426 0.357365,0.360916 -0.208108,0.77586 -0.551886,0.404972 -0.642287,0.412368 -0.776163,0.0635 z m -54.45317,-0.671811 c 0,-0.09287 0.17629,-0.315158 0.39176,-0.493983 0.4384,-0.363834 1.05876,0.01935 0.77491,0.47864 -0.17342,0.280593 -1.16667,0.293656 -1.16667,0.01534 z m 29.74898,-0.320716 c -0.30875,-0.372023 -0.1335,-0.672333 0.39235,-0.672333 0.37839,0 0.46365,0.654777 0.11345,0.871213 -0.12387,0.07656 -0.35148,-0.01294 -0.5058,-0.19888 z m -3.07898,-0.966944 c 0,-0.347368 1.00318,-0.492124 1.51441,-0.218524 0.69993,0.374595 0.671,0.397681 -0.49841,0.397681 -0.5588,0 -1.016,-0.08062 -1.016,-0.179157 z m 26.2255,-0.320493 c -0.702056,-0.328433 -0.741182,-0.654896 -0.07849,-0.654896 0.271155,0 0.563651,-0.1143 0.649991,-0.254 0.225003,-0.364063 0.635,-0.313408 0.635,0.07845 0,0.700117 -0.600928,1.11374 -1.2065,0.830443 z m -51.46335,-0.273896 c 0.16355,-0.426209 0.49732,-0.498383 0.7104,-0.153615 0.0773,0.125061 -0.0396,0.296511 -0.25978,0.381 -0.57206,0.219519 -0.614,0.198359 -0.45062,-0.227385 z m 50.492323,-2.35339 c -0.14989,-0.102635 -0.35626,-0.412521 -0.458602,-0.688634 -0.163423,-0.440908 -0.107053,-0.427787 0.463027,0.107775 0.357007,0.335391 0.649102,0.647026 0.649102,0.692525 0,0.14493 -0.371493,0.08145 -0.653527,-0.111666 z m -2.785917,-2.870509 c -0.273373,-0.442326 0.03798,-0.536001 0.386349,-0.116239 0.200342,0.241397 0.219613,0.387138 0.05119,0.387138 -0.14856,0 -0.34545,-0.121905 -0.437535,-0.270899 z m -2.043481,-1.404697 c 0.199336,-0.422391 0.353867,-0.502518 0.590461,-0.306163 0.476674,0.395604 0.390784,0.639095 -0.269997,0.765412 -0.533626,0.102009 -0.564474,0.0578 -0.320464,-0.459249 z m -36.752985,-0.610404 c -0.5285,-0.06985 -0.92855,-0.2413 -0.889,-0.381 0.0395,-0.1397 0.27947,-0.225437 0.53316,-0.190527 0.68957,0.09489 1.44706,-0.394286 1.28094,-0.827207 -0.18648,-0.485959 0.60894,-0.798439 1.00538,-0.394963 0.23197,0.236084 0.17641,0.407182 -0.24381,0.750864 -0.29932,0.244809 -0.58507,0.608171 -0.635,0.80747 -0.066,0.263614 -0.35262,0.327754 -1.05167,0.235363 z m 34.365799,-0.341279 c 0.0088,-0.661119 0.484035,-1.086302 0.754222,-0.674721 0.360815,0.549639 0.319835,0.686552 -0.250111,0.835596 -0.292628,0.07652 -0.506352,0.0083 -0.504111,-0.160875 z m -32.088429,-1.601923 c -0.21519,-0.215199 1.01934,-1.358798 1.46685,-1.358798 0.55829,0 0.1629,0.922971 -0.53079,1.239038 -0.73368,0.334289 -0.72291,0.33291 -0.93606,0.11976 z m 29.644499,-0.448676 c -0.08487,-0.221167 -0.358452,-0.402122 -0.607959,-0.402122 -0.249507,0 -0.51944,-0.17145 -0.599854,-0.381 -0.189339,-0.49341 0.11877,-0.48107 1.23097,0.0493 0.876186,0.417824 1.048477,0.830168 0.432644,1.035446 -0.165822,0.05527 -0.370932,-0.08046 -0.455801,-0.301625 z m -23.065789,-1.608622 c -0.10478,-0.104775 -0.29528,-0.1905 -0.42334,-0.1905 -0.12806,0 -0.23283,-0.08572 -0.23283,-0.1905 0,-0.104775 0,-0.330233 0,-0.501017 0,-0.170784 0.17059,-0.06696 0.37909,0.230719 0.26358,0.376305 0.54659,0.497436 0.92873,0.397506 0.37684,-0.09855 0.4925,-0.05131 0.36791,0.150281 -0.20628,0.333767 -0.73557,0.387503 -1.01956,0.103511 z m 15.34583,-0.63317 c 0,-0.318122 0.21888,-0.457274 0.762,-0.48443 0.4191,-0.02096 0.90331,-0.04953 1.07602,-0.0635 0.172713,-0.01397 0.350236,0.162633 0.394493,0.392451 0.06325,0.328437 -0.167,0.437533 -1.076021,0.50983 -0.968792,0.07705 -1.156492,0.01954 -1.156492,-0.354351 z m 3.762375,0.396159 c 0.183355,-0.07337 0.402433,-0.06435 0.486834,0.02005 0.0844,0.0844 -0.06562,0.144435 -0.333375,0.133406 -0.295897,-0.01219 -0.356082,-0.07238 -0.153459,-0.153458 z m -20.828005,-0.508 c 0.18336,-0.07337 0.40243,-0.06435 0.48684,0.02005 0.0844,0.0844 -0.0656,0.144435 -0.33338,0.133406 -0.29589,-0.01219 -0.35608,-0.07237 -0.15346,-0.153458 z m 8.74555,-1.265236 c -0.72718,-0.293169 0.0737,-0.593253 1.5833,-0.593253 1.86058,0 2.65506,0.201919 2.12258,0.539458 -0.36086,0.228746 -3.17076,0.269535 -3.70588,0.05379 z m 6.10241,-0.0073 c 0.24714,-0.0644 0.59004,-0.06016 0.762,0.0094 0.17197,0.06958 -0.0302,0.122267 -0.44933,0.117091 -0.4191,-0.0052 -0.5598,-0.0621 -0.31267,-0.126503 z" style="fill:#00ffff;fill-opacity:1;stroke-width:0.25400001"></path><path inkscape:connector-curvature="0" id="path5136" d="m -110.85256,154.02781 c -7.36317,-1.99441 -12.48095,-8.65002 -12.49639,-16.25144 -0.008,-4.16294 1.32193,-7.51948 5.2833,-13.32971 4.16821,-6.11361 5.27843,-7.82648 6.4658,-9.97554 1.59101,-2.87961 3.61043,-7.68271 4.2515,-10.11197 0.29492,-1.1176 0.59843,-2.20345 0.67446,-2.413 0.076,-0.20956 0.40025,0.762 0.72047,2.15899 1.30011,5.67176 3.51748,9.95162 9.284819,17.92109 7.131545,9.85457 8.46709,14.87794 5.803839,21.82991 -3.011195,7.86024 -11.872608,12.36976 -19.987798,10.17167 z" style="fill:#000000;fill-opacity:1;stroke-width:0.25400001"></path></g></g></g></svg>